PathFileType	4	(X/Y/Z)	s08c0102.trc
DataRate	CameraRate	NumFrames	NumMarkers	Units	OrigDataRate	OrigDataStartFrame	OrigNumFrames
200	200	6	50	mm	200	1000	2000
Frame#	Time	racr			lacr			c7			jug			rlel			rdr			llel			ldr			s2			lic			ric			lasi			rasi			rpsi			lpsi			rgt			lgt			rth1			rth2			rth3			rth4			rlfc			rmfc			rsh1			rsh2			rsh3			rsh4			rlmal			rmmal			rcal			rtoe			rmt5			lth1			lth2			lth4			lth3			llfc			lmfc			llmal			lmmal			lcal			lmt5			lsh1			lsh2			lsh3			lsh4			ltoe			SBIKE			LBIKE			RBIKE			
		X1	Y1	Z1	X2	Y2	Z2	X3	Y3	Z3	X4	Y4	Z4	X5	Y5	Z5	X6	Y6	Z6	X7	Y7	Z7	X8	Y8	Z8	X9	Y9	Z9	X10	Y10	Z10	X11	Y11	Z11	X12	Y12	Z12	X13	Y13	Z13	X14	Y14	Z14	X15	Y15	Z15	X16	Y16	Z16	X17	Y17	Z17	X18	Y18	Z18	X19	Y19	Z19	X20	Y20	Z20	X21	Y21	Z21	X22	Y22	Z22	X23	Y23	Z23	X24	Y24	Z24	X25	Y25	Z25	X26	Y26	Z26	X27	Y27	Z27	X28	Y28	Z28	X29	Y29	Z29	X30	Y30	Z30	X31	Y31	Z31	X32	Y32	Z32	X33	Y33	Z33	X34	Y34	Z34	X35	Y35	Z35	X36	Y36	Z36	X37	Y37	Z37	X38	Y38	Z38	X39	Y39	Z39	X40	Y40	Z40	X41	Y41	Z41	X42	Y42	Z42	X43	Y43	Z43	X44	Y44	Z44	X45	Y45	Z45	X46	Y46	Z46	X47	Y47	Z47	X48	Y48	Z48	X49	Y49	Z49	X50	Y50	Z50	
1000	5.0000	595.823340	1326.524828	-130.094227	558.129288	1363.725742	-424.088290	543.157489	1407.034217	-271.071910	536.160439	1247.992928	-284.135065	613.085296	1098.690425	19.959687	801.599596	889.324236	-59.198232	576.943030	1095.103272	-515.948028	796.837823	915.343149	-435.238307	-19.522937	1217.297219	-208.897194	121.217305	1222.128082	-370.415648	156.996393	1207.707948	-59.276043	156.265332	1184.829776	-331.301801	170.853405	1153.582513	-95.412715	17.155185	1255.253058	-153.297109	7.246821	1266.653185	-246.188152	71.082963	1092.124087	-28.930793	81.961015	1123.294415	-405.341825	190.351493	967.359809	-32.679584	262.307284	915.678872	-40.872927	296.750079	835.773160	-47.979185	287.810239	937.547452	-56.380943	355.155728	737.578067	-64.304022	327.643124	728.785053	-174.141996	255.411594	648.975125	-32.630654	222.973510	567.162924	-53.107689	156.304440	513.518279	-56.803181	248.323930	554.173458	-81.190414	76.455300	425.094987	-62.747949	98.798166	434.328010	-151.522216	1.509898	446.650645	-110.871106	223.757232	249.281668	-105.316814	135.824825	282.708158	-39.726888	178.766024	1028.223413	-416.802111	258.334919	992.564488	-415.973830	281.039447	1019.530183	-404.932161	309.965849	920.248225	-418.623756	394.060150	817.563125	-399.277822	400.498783	788.821414	-291.979950	316.011409	401.278539	-404.535767	341.805877	423.327913	-317.886565	248.584244	366.662471	-366.441011	461.470611	337.394990	-426.722851	372.883600	689.253402	-423.870145	377.623471	604.678878	-408.750421	341.324682	524.784933	-410.671274	399.961155	603.998304	-376.043925	538.444338	380.261930	-359.379652	-143.352338	939.475897	-227.980417	12.431999	79.670127	-427.195321	12.716087	79.519962	-28.948296	
1001	5.0050	595.664375	1324.100619	-127.842697	559.176749	1361.959918	-423.274296	544.058142	1404.984033	-270.251752	536.075140	1245.953764	-282.853988	612.404020	1096.694660	22.209106	801.631743	889.219141	-58.405436	577.756923	1093.692714	-516.291790	797.121533	913.655024	-433.743590	-18.706860	1215.376001	-210.559004	122.556491	1219.108109	-372.241735	157.046126	1206.202600	-60.517599	157.423610	1181.451613	-333.060899	170.172522	1152.041325	-96.884319	17.612849	1253.777586	-154.975843	8.357068	1264.316434	-248.049991	71.814569	1090.651130	-29.886705	82.418465	1118.070615	-406.484387	192.880336	967.726020	-32.603298	266.377753	918.082680	-40.280383	302.813184	838.873371	-47.962356	291.385481	940.766796	-55.068226	362.367697	742.477904	-64.967447	335.039807	733.114977	-174.761086	261.228083	655.967385	-32.811396	226.848796	574.708850	-53.257603	159.037547	522.594294	-56.841706	252.279566	561.358623	-81.191960	77.384400	435.946314	-62.644388	99.881577	444.730840	-151.402147	2.842775	458.426856	-110.305248	222.600572	258.602553	-105.443651	135.100470	293.143147	-39.701302	178.251684	1021.061061	-417.564785	257.188199	984.135707	-416.678811	280.549310	1011.034362	-406.801015	307.588905	910.918259	-418.642315	390.589899	807.650744	-399.233554	396.317833	779.046131	-291.993064	316.977969	390.658009	-404.581307	342.561239	412.674810	-317.701428	249.790169	356.381253	-366.426272	462.747891	326.534045	-426.360404	370.397560	678.853611	-424.188014	376.322778	594.409101	-408.686041	341.131057	513.971733	-410.544948	398.569279	594.054494	-375.770411	539.678403	369.092643	-358.819976	-143.446080	939.460297	-227.772730	12.482571	79.713361	-427.172081	12.750985	79.538247	-28.928812	
1002	5.0100	595.213090	1321.965730	-125.202605	560.220655	1360.235293	-422.383916	544.808933	1403.087524	-269.221434	535.871588	1244.063045	-281.220226	611.532308	1094.840566	25.087090	801.411942	889.349837	-57.705313	579.535123	1092.552163	-516.484088	797.315099	912.334949	-432.946260	-17.795153	1213.778444	-212.661666	124.116938	1216.056128	-374.304961	156.891242	1204.917248	-61.850652	158.751853	1178.020989	-335.051875	170.178653	1150.899162	-97.924040	18.001234	1252.252460	-156.992209	9.840592	1261.811952	-250.428684	72.526450	1089.563887	-31.021420	83.089048	1112.784818	-407.637263	195.622083	968.473753	-32.592349	270.320092	920.549938	-40.558708	308.891664	842.467707	-48.164215	295.000703	944.148597	-54.496609	369.834510	747.818508	-65.557359	338.496911	739.610469	-178.004870	267.356682	663.015947	-32.989525	231.206444	582.600507	-53.486953	162.231716	531.749511	-57.034937	256.269309	568.394581	-81.414117	79.025843	446.866919	-62.569907	101.808326	455.654846	-149.882968	4.547915	470.413745	-110.078304	222.004754	268.208648	-105.362847	135.062646	303.486148	-39.764533	177.878144	1013.978962	-418.551116	256.187707	975.682165	-417.358355	279.786779	1002.057198	-407.298877	305.351070	901.600477	-418.575113	386.990492	797.604269	-399.130543	392.034355	769.252977	-292.022604	317.381676	380.245573	-404.641964	344.163256	403.660535	-319.390465	250.474645	346.399827	-366.409740	463.342299	315.568908	-426.016034	367.775759	668.356318	-423.916055	374.655245	584.137687	-408.579482	340.266282	502.996614	-409.749025	396.865360	584.127417	-375.666139	540.216275	357.810315	-358.416080	-143.505465	939.448730	-227.629021	12.507912	79.730768	-427.151138	12.762911	79.519529	-28.897565	
1003	5.0150	594.507900	1320.118176	-122.235684	561.391079	1358.726994	-421.726650	545.474668	1401.399648	-267.908206	535.700475	1242.382017	-279.307283	610.180244	1093.320502	27.687799	801.013506	889.603832	-57.192170	581.946897	1091.782938	-516.489928	797.618135	910.952839	-432.567751	-16.891619	1212.027988	-215.040658	126.051129	1212.901593	-376.522186	156.559471	1203.967183	-63.187665	160.386975	1174.446489	-336.604348	170.216129	1149.838928	-99.243359	17.985116	1250.974987	-158.905656	11.531774	1259.379050	-253.413182	73.110282	1089.208607	-31.824657	83.963582	1107.434763	-408.877013	198.518611	969.694525	-32.744141	274.565664	923.962319	-39.969391	315.085535	846.869637	-48.309603	298.589109	947.973265	-54.077996	377.096207	753.281293	-66.119022	346.340445	745.002566	-178.543964	273.636549	670.208875	-33.336095	235.861924	590.555427	-53.848328	165.932405	541.121002	-57.295934	260.453891	575.761041	-81.718720	81.166238	457.932524	-62.696876	104.435518	465.979455	-149.983411	6.495424	482.364080	-110.296582	222.181485	278.023111	-105.508604	135.591978	314.189135	-39.836480	177.776536	1006.951819	-419.611325	255.377863	967.314016	-418.066899	279.459275	993.345186	-408.440687	303.158799	892.333168	-418.660747	383.342345	787.515146	-399.067117	387.630968	759.481193	-292.127689	317.310973	369.978177	-404.765292	355.273819	402.510980	-333.200756	250.644239	336.663202	-366.485209	463.347657	304.486937	-425.734514	364.849773	658.070254	-423.868365	372.635400	574.012661	-408.617201	339.153605	492.433456	-409.692067	394.685625	574.313545	-375.663069	540.293162	346.313107	-358.071386	-143.500309	939.438106	-227.611846	12.553665	79.717189	-427.134107	12.781239	79.533749	-28.898356	
1004	5.0200	593.487474	1318.629712	-119.284455	562.616468	1357.521979	-420.758396	545.919396	1399.917690	-266.279415	535.628741	1240.902898	-277.229640	609.020793	1091.939663	30.353459	800.665725	889.866337	-56.852601	584.672825	1091.533679	-516.348300	798.041424	909.464637	-432.513228	-16.019242	1210.118171	-217.730439	128.051598	1209.672134	-378.478627	155.959344	1203.206115	-64.603597	162.225531	1170.751038	-338.495206	170.210688	1149.253651	-100.412036	19.086435	1249.316570	-161.472536	13.278531	1256.848910	-256.439534	73.754070	1089.090084	-32.516269	85.049530	1102.170223	-410.145581	201.361793	971.549769	-33.364198	278.544493	927.503319	-40.176189	320.838751	851.284462	-48.424033	302.151859	952.026604	-53.902519	384.306260	759.252744	-66.633858	354.407599	750.954822	-178.985360	280.153985	677.670198	-33.686268	240.904503	598.630553	-54.330241	170.187815	550.381346	-57.674555	265.240674	583.477567	-82.067407	83.922126	468.912190	-62.979320	107.231072	476.649670	-150.142914	9.151507	494.284680	-110.809307	223.065165	287.772605	-105.651170	136.921270	324.710399	-40.018996	177.856909	1000.335151	-420.670315	254.660221	959.086015	-418.874060	279.232891	984.767455	-409.558614	300.972003	883.157797	-418.785544	379.817082	777.839678	-399.641354	383.090262	749.769836	-292.367467	316.874378	359.868666	-404.986647	354.784625	392.290635	-333.333461	250.240400	327.302252	-366.727537	462.844188	293.262330	-425.464347	361.682087	648.082710	-423.944137	370.265739	563.929281	-408.600171	337.675869	481.993334	-409.768109	392.228527	564.526432	-375.469823	539.972189	334.539888	-357.689601	-143.413125	939.444692	-227.770815	12.586839	79.666869	-427.137407	12.785937	79.540163	-28.892727	
1005	5.0250	592.269920	1317.608716	-116.174854	563.934828	1356.865725	-419.280194	546.281337	1398.694094	-264.457061	535.795802	1239.661547	-274.931503	607.518134	1090.840233	32.917116	800.355575	890.070848	-56.695890	587.853945	1091.881221	-516.511771	798.397131	907.810374	-432.075762	-15.980678	1208.895428	-220.202974	130.395974	1206.482029	-380.571311	155.067705	1202.802159	-65.978966	164.256966	1167.120975	-339.920662	170.153257	1148.952371	-101.821131	15.955878	1249.386303	-164.238904	14.215893	1254.582177	-258.540933	74.520574	1089.090907	-33.516770	86.426097	1097.121321	-411.467004	204.296291	973.772232	-34.180684	282.375473	931.405452	-40.231653	326.242120	856.073679	-48.373947	305.561649	956.378759	-53.933504	391.394202	765.729586	-66.630371	359.213402	754.098454	-179.083560	286.767751	685.285754	-34.142299	246.333666	606.924476	-54.813504	174.856903	559.781816	-58.142150	270.379227	591.306565	-82.628885	87.266796	479.811105	-63.397004	118.303234	484.217250	-150.390948	12.362601	505.832850	-111.350795	224.774164	297.454934	-105.937023	138.885089	335.349343	-40.233409	177.978762	993.915930	-421.893719	253.955369	950.964253	-419.571934	279.145792	976.243645	-410.515544	298.689811	874.148821	-418.873946	385.164771	774.292450	-410.676238	378.394889	740.158148	-292.801058	315.974850	349.950370	-405.317390	354.135197	382.398394	-333.782177	249.356974	318.275785	-367.095026	461.724651	282.022788	-425.166019	358.204951	638.175531	-424.127320	367.803932	554.338317	-409.476473	335.765357	471.854005	-410.036556	389.568114	554.668342	-375.727697	539.533760	323.208035	-357.986329	-143.279856	939.440395	-228.090006	12.624194	79.590807	-427.150324	12.800929	79.538033	-28.898020	
